<mxfile host="app.diagrams.net" modified="2022-03-18T11:24:11.153Z" agent="5.0 (Windows NT 10.0; Win64; x64) AppleWebKit/537.36 (KHTML, like Gecko) Chrome/99.0.4844.74 Safari/537.36" etag="jSH9mj9hStjsG8QGu_qO" version="17.1.2" type="github">
  <diagram id="9uMScGVuyJJB7MUFxCvC" name="Page-1">
    <mxGraphModel dx="1102" dy="618" grid="1" gridSize="10" guides="1" tooltips="1" connect="1" arrows="1" fold="1" page="1" pageScale="1" pageWidth="850" pageHeight="1100" math="0" shadow="0">
      <root>
        <mxCell id="0" />
        <mxCell id="1" parent="0" />
        <mxCell id="_s5pQZkKiajbCOTZNjqX-7" value="Open Application" style="edgeStyle=none;rounded=0;orthogonalLoop=1;jettySize=auto;html=1;endArrow=classic;endFill=1;" edge="1" parent="1" source="_s5pQZkKiajbCOTZNjqX-1" target="_s5pQZkKiajbCOTZNjqX-3">
          <mxGeometry relative="1" as="geometry">
            <Array as="points">
              <mxPoint x="180" y="120" />
            </Array>
          </mxGeometry>
        </mxCell>
        <mxCell id="_s5pQZkKiajbCOTZNjqX-1" value="" style="shape=umlLifeline;participant=umlActor;perimeter=lifelinePerimeter;whiteSpace=wrap;html=1;container=1;collapsible=0;recursiveResize=0;verticalAlign=top;spacingTop=36;outlineConnect=0;" vertex="1" parent="1">
          <mxGeometry x="90" y="40" width="20" height="480" as="geometry" />
        </mxCell>
        <mxCell id="_s5pQZkKiajbCOTZNjqX-10" value="" style="html=1;points=[];perimeter=orthogonalPerimeter;" vertex="1" parent="_s5pQZkKiajbCOTZNjqX-1">
          <mxGeometry x="5" y="80" width="10" height="80" as="geometry" />
        </mxCell>
        <mxCell id="_s5pQZkKiajbCOTZNjqX-16" value="" style="html=1;points=[];perimeter=orthogonalPerimeter;" vertex="1" parent="_s5pQZkKiajbCOTZNjqX-1">
          <mxGeometry x="5" y="200" width="10" height="220" as="geometry" />
        </mxCell>
        <mxCell id="_s5pQZkKiajbCOTZNjqX-2" value="Player" style="text;html=1;align=center;verticalAlign=middle;resizable=0;points=[];autosize=1;strokeColor=none;fillColor=none;" vertex="1" parent="1">
          <mxGeometry x="75" y="20" width="50" height="20" as="geometry" />
        </mxCell>
        <mxCell id="_s5pQZkKiajbCOTZNjqX-9" style="edgeStyle=none;rounded=0;orthogonalLoop=1;jettySize=auto;html=1;endArrow=open;endFill=0;" edge="1" parent="1" source="_s5pQZkKiajbCOTZNjqX-12" target="_s5pQZkKiajbCOTZNjqX-4">
          <mxGeometry relative="1" as="geometry">
            <Array as="points">
              <mxPoint x="340" y="120" />
            </Array>
          </mxGeometry>
        </mxCell>
        <mxCell id="_s5pQZkKiajbCOTZNjqX-11" value="Establishing Connection" style="edgeLabel;html=1;align=center;verticalAlign=middle;resizable=0;points=[];" vertex="1" connectable="0" parent="_s5pQZkKiajbCOTZNjqX-9">
          <mxGeometry x="0.32" y="2" relative="1" as="geometry">
            <mxPoint x="-25" as="offset" />
          </mxGeometry>
        </mxCell>
        <mxCell id="_s5pQZkKiajbCOTZNjqX-3" value="Application" style="shape=umlLifeline;perimeter=lifelinePerimeter;whiteSpace=wrap;html=1;container=1;collapsible=0;recursiveResize=0;outlineConnect=0;" vertex="1" parent="1">
          <mxGeometry x="200" y="20" width="100" height="500" as="geometry" />
        </mxCell>
        <mxCell id="_s5pQZkKiajbCOTZNjqX-12" value="" style="html=1;points=[];perimeter=orthogonalPerimeter;" vertex="1" parent="_s5pQZkKiajbCOTZNjqX-3">
          <mxGeometry x="45" y="100" width="10" height="80" as="geometry" />
        </mxCell>
        <mxCell id="_s5pQZkKiajbCOTZNjqX-22" value="" style="html=1;points=[];perimeter=orthogonalPerimeter;" vertex="1" parent="_s5pQZkKiajbCOTZNjqX-3">
          <mxGeometry x="45" y="220" width="10" height="120" as="geometry" />
        </mxCell>
        <mxCell id="_s5pQZkKiajbCOTZNjqX-31" value="" style="html=1;points=[];perimeter=orthogonalPerimeter;" vertex="1" parent="_s5pQZkKiajbCOTZNjqX-3">
          <mxGeometry x="45" y="370" width="10" height="80" as="geometry" />
        </mxCell>
        <mxCell id="_s5pQZkKiajbCOTZNjqX-13" style="edgeStyle=none;rounded=0;orthogonalLoop=1;jettySize=auto;html=1;entryX=1;entryY=0.963;entryDx=0;entryDy=0;entryPerimeter=0;endArrow=open;endFill=0;dashed=1;" edge="1" parent="1" source="_s5pQZkKiajbCOTZNjqX-4" target="_s5pQZkKiajbCOTZNjqX-12">
          <mxGeometry relative="1" as="geometry" />
        </mxCell>
        <mxCell id="_s5pQZkKiajbCOTZNjqX-14" value="Connecton Established" style="edgeLabel;html=1;align=center;verticalAlign=middle;resizable=0;points=[];" vertex="1" connectable="0" parent="_s5pQZkKiajbCOTZNjqX-13">
          <mxGeometry x="0.1386" y="-3" relative="1" as="geometry">
            <mxPoint x="13" y="2" as="offset" />
          </mxGeometry>
        </mxCell>
        <mxCell id="_s5pQZkKiajbCOTZNjqX-4" value="Server" style="shape=umlLifeline;perimeter=lifelinePerimeter;whiteSpace=wrap;html=1;container=1;collapsible=0;recursiveResize=0;outlineConnect=0;" vertex="1" parent="1">
          <mxGeometry x="375" y="20" width="100" height="500" as="geometry" />
        </mxCell>
        <mxCell id="_s5pQZkKiajbCOTZNjqX-15" value="" style="html=1;points=[];perimeter=orthogonalPerimeter;" vertex="1" parent="_s5pQZkKiajbCOTZNjqX-4">
          <mxGeometry x="45" y="100" width="10" height="80" as="geometry" />
        </mxCell>
        <mxCell id="_s5pQZkKiajbCOTZNjqX-20" value="Connection Failure" style="edgeStyle=orthogonalEdgeStyle;rounded=0;orthogonalLoop=1;jettySize=auto;elbow=vertical;html=1;endArrow=classic;endFill=1;entryX=0.9;entryY=0.863;entryDx=0;entryDy=0;entryPerimeter=0;" edge="1" parent="_s5pQZkKiajbCOTZNjqX-4" source="_s5pQZkKiajbCOTZNjqX-15" target="_s5pQZkKiajbCOTZNjqX-15">
          <mxGeometry x="-0.0164" y="20" relative="1" as="geometry">
            <mxPoint x="115" y="150" as="targetPoint" />
            <Array as="points">
              <mxPoint x="85" y="110" />
              <mxPoint x="85" y="170" />
              <mxPoint x="75" y="170" />
              <mxPoint x="75" y="169" />
            </Array>
            <mxPoint as="offset" />
          </mxGeometry>
        </mxCell>
        <mxCell id="_s5pQZkKiajbCOTZNjqX-27" value="" style="html=1;points=[];perimeter=orthogonalPerimeter;" vertex="1" parent="_s5pQZkKiajbCOTZNjqX-4">
          <mxGeometry x="45" y="280" width="10" height="60" as="geometry" />
        </mxCell>
        <mxCell id="_s5pQZkKiajbCOTZNjqX-5" value="Market Place" style="shape=umlLifeline;perimeter=lifelinePerimeter;whiteSpace=wrap;html=1;container=1;collapsible=0;recursiveResize=0;outlineConnect=0;" vertex="1" parent="1">
          <mxGeometry x="540" y="20" width="100" height="500" as="geometry" />
        </mxCell>
        <mxCell id="_s5pQZkKiajbCOTZNjqX-24" value="" style="html=1;points=[];perimeter=orthogonalPerimeter;" vertex="1" parent="_s5pQZkKiajbCOTZNjqX-5">
          <mxGeometry x="45" y="220" width="10" height="60" as="geometry" />
        </mxCell>
        <mxCell id="_s5pQZkKiajbCOTZNjqX-6" value="Wallet" style="shape=umlLifeline;perimeter=lifelinePerimeter;whiteSpace=wrap;html=1;container=1;collapsible=0;recursiveResize=0;outlineConnect=0;" vertex="1" parent="1">
          <mxGeometry x="680" y="20" width="100" height="500" as="geometry" />
        </mxCell>
        <mxCell id="_s5pQZkKiajbCOTZNjqX-34" value="" style="html=1;points=[];perimeter=orthogonalPerimeter;" vertex="1" parent="_s5pQZkKiajbCOTZNjqX-6">
          <mxGeometry x="45" y="370" width="10" height="80" as="geometry" />
        </mxCell>
        <mxCell id="_s5pQZkKiajbCOTZNjqX-17" style="edgeStyle=none;rounded=0;orthogonalLoop=1;jettySize=auto;html=1;endArrow=classic;endFill=1;" edge="1" parent="1" source="_s5pQZkKiajbCOTZNjqX-16" target="_s5pQZkKiajbCOTZNjqX-3">
          <mxGeometry relative="1" as="geometry">
            <Array as="points">
              <mxPoint x="180" y="240" />
            </Array>
          </mxGeometry>
        </mxCell>
        <mxCell id="_s5pQZkKiajbCOTZNjqX-21" value="Place Bet" style="edgeLabel;html=1;align=center;verticalAlign=middle;resizable=0;points=[];" vertex="1" connectable="0" parent="_s5pQZkKiajbCOTZNjqX-17">
          <mxGeometry x="-0.3356" relative="1" as="geometry">
            <mxPoint x="17" as="offset" />
          </mxGeometry>
        </mxCell>
        <mxCell id="_s5pQZkKiajbCOTZNjqX-23" style="edgeStyle=none;rounded=0;orthogonalLoop=1;jettySize=auto;html=1;endArrow=classic;endFill=1;elbow=vertical;" edge="1" parent="1" source="_s5pQZkKiajbCOTZNjqX-22" target="_s5pQZkKiajbCOTZNjqX-5">
          <mxGeometry relative="1" as="geometry">
            <Array as="points">
              <mxPoint x="420" y="240" />
            </Array>
          </mxGeometry>
        </mxCell>
        <mxCell id="_s5pQZkKiajbCOTZNjqX-25" value="Checking NFT and getting Value" style="edgeLabel;html=1;align=center;verticalAlign=middle;resizable=0;points=[];" vertex="1" connectable="0" parent="_s5pQZkKiajbCOTZNjqX-23">
          <mxGeometry x="-0.3004" y="4" relative="1" as="geometry">
            <mxPoint as="offset" />
          </mxGeometry>
        </mxCell>
        <mxCell id="_s5pQZkKiajbCOTZNjqX-26" style="edgeStyle=none;rounded=0;orthogonalLoop=1;jettySize=auto;html=1;endArrow=classic;endFill=1;elbow=vertical;dashed=1;" edge="1" parent="1" source="_s5pQZkKiajbCOTZNjqX-24" target="_s5pQZkKiajbCOTZNjqX-4">
          <mxGeometry relative="1" as="geometry">
            <Array as="points">
              <mxPoint x="510" y="300" />
            </Array>
          </mxGeometry>
        </mxCell>
        <mxCell id="_s5pQZkKiajbCOTZNjqX-28" value="Current Value of NFT" style="edgeLabel;html=1;align=center;verticalAlign=middle;resizable=0;points=[];" vertex="1" connectable="0" parent="_s5pQZkKiajbCOTZNjqX-26">
          <mxGeometry x="0.2212" y="2" relative="1" as="geometry">
            <mxPoint x="23" y="-2" as="offset" />
          </mxGeometry>
        </mxCell>
        <mxCell id="_s5pQZkKiajbCOTZNjqX-29" style="edgeStyle=none;rounded=0;orthogonalLoop=1;jettySize=auto;html=1;entryX=0.7;entryY=1;entryDx=0;entryDy=0;entryPerimeter=0;dashed=1;endArrow=classic;endFill=1;elbow=vertical;" edge="1" parent="1" source="_s5pQZkKiajbCOTZNjqX-27" target="_s5pQZkKiajbCOTZNjqX-22">
          <mxGeometry relative="1" as="geometry" />
        </mxCell>
        <mxCell id="_s5pQZkKiajbCOTZNjqX-30" value="Sending NFT Info" style="edgeLabel;html=1;align=center;verticalAlign=middle;resizable=0;points=[];" vertex="1" connectable="0" parent="_s5pQZkKiajbCOTZNjqX-29">
          <mxGeometry x="-0.119" y="-2" relative="1" as="geometry">
            <mxPoint as="offset" />
          </mxGeometry>
        </mxCell>
        <mxCell id="_s5pQZkKiajbCOTZNjqX-32" style="edgeStyle=none;rounded=0;orthogonalLoop=1;jettySize=auto;html=1;endArrow=classic;endFill=1;elbow=vertical;" edge="1" parent="1" source="_s5pQZkKiajbCOTZNjqX-31" target="_s5pQZkKiajbCOTZNjqX-6">
          <mxGeometry relative="1" as="geometry">
            <Array as="points">
              <mxPoint x="500" y="390" />
            </Array>
          </mxGeometry>
        </mxCell>
        <mxCell id="_s5pQZkKiajbCOTZNjqX-33" value="Shift NFT to Wallet" style="edgeLabel;html=1;align=center;verticalAlign=middle;resizable=0;points=[];" vertex="1" connectable="0" parent="_s5pQZkKiajbCOTZNjqX-32">
          <mxGeometry x="-0.0769" relative="1" as="geometry">
            <mxPoint as="offset" />
          </mxGeometry>
        </mxCell>
        <mxCell id="_s5pQZkKiajbCOTZNjqX-35" style="edgeStyle=none;rounded=0;orthogonalLoop=1;jettySize=auto;html=1;endArrow=classic;endFill=1;elbow=vertical;dashed=1;" edge="1" parent="1" source="_s5pQZkKiajbCOTZNjqX-34" target="_s5pQZkKiajbCOTZNjqX-3">
          <mxGeometry relative="1" as="geometry">
            <Array as="points">
              <mxPoint x="540" y="470" />
            </Array>
          </mxGeometry>
        </mxCell>
        <mxCell id="_s5pQZkKiajbCOTZNjqX-36" value="NFT Shifted" style="edgeLabel;html=1;align=center;verticalAlign=middle;resizable=0;points=[];" vertex="1" connectable="0" parent="_s5pQZkKiajbCOTZNjqX-35">
          <mxGeometry x="0.0683" y="-3" relative="1" as="geometry">
            <mxPoint as="offset" />
          </mxGeometry>
        </mxCell>
        <mxCell id="_s5pQZkKiajbCOTZNjqX-37" style="edgeStyle=none;rounded=0;orthogonalLoop=1;jettySize=auto;html=1;entryX=-0.1;entryY=1.013;entryDx=0;entryDy=0;entryPerimeter=0;dashed=1;endArrow=classic;endFill=1;elbow=vertical;" edge="1" parent="1" source="_s5pQZkKiajbCOTZNjqX-31" target="_s5pQZkKiajbCOTZNjqX-16">
          <mxGeometry relative="1" as="geometry" />
        </mxCell>
        <mxCell id="_s5pQZkKiajbCOTZNjqX-38" value="NFT Shifted to Account" style="edgeLabel;html=1;align=center;verticalAlign=middle;resizable=0;points=[];" vertex="1" connectable="0" parent="_s5pQZkKiajbCOTZNjqX-37">
          <mxGeometry x="0.1523" y="1" relative="1" as="geometry">
            <mxPoint x="12" as="offset" />
          </mxGeometry>
        </mxCell>
      </root>
    </mxGraphModel>
  </diagram>
</mxfile>
